<svg xmlns="http://www.w3.org/2000/svg" xmlns:xlink="http://www.w3.org/1999/xlink" version="1.1" x="0px" y="0px" viewBox="0 0 100 125" style="enable-background:new 0 0 100 100;" xml:space="preserve"><path d="M44.7,16.6c0-2.9,2.4-5.3,5.3-5.3s5.3,2.4,5.3,5.3c0,2.9-2.4,5.3-5.3,5.3S44.7,19.5,44.7,16.6z M72.5,58.3  c0,12.4-10.1,22.5-22.5,22.5c-12.4,0-22.5-10.1-22.5-22.5S37.6,35.8,50,35.8C62.4,35.8,72.5,45.9,72.5,58.3z M59.3,58.3  c0-5.2-4.2-9.3-9.3-9.3s-9.3,4.2-9.3,9.3s4.2,9.3,9.3,9.3S59.3,63.5,59.3,58.3z M87.2,13.4v68.4c0,6-4.9,10.9-10.9,10.9h-0.6v2.8  c0,1.1-0.9,1.9-1.9,1.9h-3.5c-1.1,0-1.9-0.9-1.9-1.9v-2.8H31.8v2.8c0,1.1-0.9,1.9-1.9,1.9h-3.5c-1.1,0-1.9-0.9-1.9-1.9v-2.8h-0.6  c-6,0-10.9-4.9-10.9-10.9V13.4c0-6,4.9-10.9,10.9-10.9h52.4C82.3,2.5,87.2,7.4,87.2,13.4z M39.9,16.6c0,5.6,4.5,10.1,10.1,10.1  s10.1-4.5,10.1-10.1S55.6,6.5,50,6.5S39.9,11,39.9,16.6z M78.3,58.3c0-15.6-12.7-28.3-28.3-28.3c-15.6,0-28.3,12.7-28.3,28.3  S34.4,86.6,50,86.6C65.6,86.6,78.3,73.9,78.3,58.3z"/><text x="0" y="115" fill="#000000" font-size="5px" font-weight="bold" font-family="'Helvetica Neue', Helvetica, Arial-Unicode, Arial, Sans-serif">Created by Vasily Gedzun</text><text x="0" y="120" fill="#000000" font-size="5px" font-weight="bold" font-family="'Helvetica Neue', Helvetica, Arial-Unicode, Arial, Sans-serif">from the Noun Project</text></svg>